<svg height="512" viewBox="0 0 60 60" width="512" xmlns="http://www.w3.org/2000/svg"><g id="094---Law"><path id="Shape" d="m37.32 30.25c-.8978046-.8906288-2.2577015-1.1226112-3.4-.58l-1.55-1.54 2.12-2.13c1.1698135-1.1712702 1.1698135-3.0687298 0-4.24l-.7-.71c1.33-1.34 2.08-1.85 2.25-3.13 1.2448484.1855079 2.5044116-.2257024 3.4-1.11l1.42-1.42c.3755541-.3751365.5865733-.8841815.5865733-1.415s-.2110192-1.0398635-.5865733-1.415l-11.32-11.3c-.7800749-.77544719-2.0399251-.77544719-2.82 0l-1.42 1.41c-.8873432.89783989-1.298799 2.16186162-1.11 3.41-.6496758.08467268-1.2537719.37969636-1.72.84l-15.55 15.55c-.46986486.4727154-.76893144 1.0884407-.85 1.75-1.24000268-.1932991-2.49884153.2065673-3.4 1.08l-1.41 1.42c-.77544719.7800749-.77544719 2.0399251 0 2.82l11.31 11.32c.3751365.3755541.8841815.5865733 1.415.5865733s1.0398635-.2110192 1.415-.5865733l1.42-1.42c.90963-.8965549 1.3240438-2.1808643 1.11-3.44 1.3-.18 1.81-.93 3.13-2.25.84.84 1.44 1.58 2.83 1.58.7862351.0073235 1.5439203-.2943142 2.11-.84l2.12-2.12 1.54 1.55c-.5426112 1.1422985-.3106288 2.5021954.58 3.4 9.5 9.48-16.24-16.32 21.22 21.22 1.955088 1.9550879 5.1249119 1.9550878 7.0799999-.0000001 1.9550879-1.955088 1.955088-5.1249119.0000001-7.0799999-44.39-44.38-1.39-1.39-21.22-21.21zm11.32 22.63 4.24-4.24 1.41 1.41-4.24 4.24zm-13.44-13.44 4.24-4.24 12 12-4.24 4.24zm-8.48-35.35 1.41-1.42 11.31 11.33-1.44 1.4c-.3751365.3755541-.8841815.5865733-1.415.5865733s-1.0398635-.2110192-1.415-.5865733l-8.45-8.48c-.3755541-.37513651-.5865733-.8841815-.5865733-1.415s.2110192-1.03986349.5865733-1.415zm-11.32 33.91-1.4 1.44-11.33-11.31 1.42-1.41c.37513651-.3755541.8841815-.5865733 1.415-.5865733s1.03986349.2110192 1.415.5865733l8.48 8.48c.7622858.777687.7622858 2.022313 0 2.8zm2.83-4.24c-.3900375.3877236-1.0199625.3877236-1.41 0l-5.66-5.66 2.12-2.1c.1893127-.1877666.2957983-.4433625.2957983-.71s-.1064856-.5222334-.2957983-.71c-.3900375-.3877236-1.0199625-.3877236-1.41 0l-2.12 2.14c-1.56-1.56-1.75-1.6-1.75-2.13.00110462-.2623399.10525584-.5137394.29-.7l15.6-15.56c.3900375-.38772359 1.0199625-.38772359 1.41 0l1.42 1.42-12 12c-.2813286.2870058-.363505.7145455-.208621 1.0853946.1548841.3708491.5167313.6129438.918621.6146054.265803.0015368.5212812-.1028135.71-.29l12-12 5.66 5.66c.3877236.3900375.3877236 1.0199625 0 1.41.09 0-.14.09-15.57 15.56zm6.36-.71c-.3900375.3877236-1.0199625.3877236-1.41 0l-.71-.71 9.9-9.9.71.71c.3877236.3900375.3877236 1.0199625 0 1.41-4.01 4.04.67-.62-8.49 8.52zm6.41-3.51 1.37 1.46-1.37 1.37-1.46-1.37zm.41 5.66c.0011094-.2672459.1091444-.5229286.3-.71l2.82-2.82c.1877666-.1893127.4433625-.2957983.71-.2957983s.5222334.1064856.71.2957983l2.05 2.12-4.21 4.21c-2.31-2.27-2.42-2.26-2.42-2.8zm25.71 21.92c-1.1712702 1.1698135-3.0687298 1.1698135-4.24 0l-1.42-1.41 4.25-4.25 1.41 1.42c1.1698135 1.1712702 1.1698135 3.0687298 0 4.24z"/><path id="Shape" d="m25 53v-1c0-2.209139-1.790861-4-4-4h-14c-2.209139 0-4 1.790861-4 4v1c-1.65685425 0-3 1.3431458-3 3v3c0 .5522847.44771525 1 1 1h26c.5522847 0 1-.4477153 1-1v-3c0-1.6568542-1.3431458-3-3-3zm-20-1c0-1.1045695.8954305-2 2-2h14c1.1045695 0 2 .8954305 2 2v1h-18zm21 6h-24v-2c0-.5522847.44771525-1 1-1h22c.5522847 0 1 .4477153 1 1z"/><path id="Shape" d="m25 44v-4c0-.5522847-.4477153-1-1-1s-1 .4477153-1 1v4c0 .5522847.4477153 1 1 1s1-.4477153 1-1z"/><path id="Shape" d="m32 47h-4c-.5522847 0-1 .4477153-1 1s.4477153 1 1 1h4c.5522847 0 1-.4477153 1-1s-.4477153-1-1-1z"/><path id="Shape" d="m27.71 45.71 3-3c.3921221-.3921222.3921221-1.0278778 0-1.42-.3921222-.3921221-1.0278778-.3921221-1.42 0l-3 3c-.2884599.2860905-.3751619.7182668-.219371 1.0934815.155791.3752147.5231059.6188811.929371.6165185.265803.0015368.5212812-.1028135.71-.29z"/></g></svg>