<?xml version="1.0" encoding="UTF-8"?>
<svg width="50px" height="50px" viewBox="0 0 50 50" version="1.1" xmlns="http://www.w3.org/2000/svg" xmlns:xlink="http://www.w3.org/1999/xlink">
    <!-- Generator: sketchtool 63.1 (101010) - https://sketch.com -->
    <title>6C448E66-FC86-4E50-86F8-D5CB06390396</title>
    <desc>Created with sketchtool.</desc>
    <defs>
        <linearGradient x1="50%" y1="0%" x2="50%" y2="98.902027%" id="linearGradient-1">
            <stop stop-color="#569FC3" offset="0%"></stop>
            <stop stop-color="#2D678A" offset="100%"></stop>
        </linearGradient>
    </defs>
    <g id="Element-Sheet" stroke="none" stroke-width="1" fill="none" fill-rule="evenodd">
        <g transform="translate(-165.000000, -1177.000000)" id="Buttons/btn-add-event">
            <g transform="translate(165.000000, 1177.000000)">
                <rect id="Rectangle" fill="url(#linearGradient-1)" x="0" y="0" width="50" height="50" rx="25"></rect>
                <g id="Group-4" transform="translate(7.000000, 10.000000)" fill="#FFFFFF">
                    <g id="calendar" transform="translate(8.000000, 5.000000)">
                        <path d="M17.5,2.5 L16.6667188,2.5 L16.6667188,0.83328125 C16.6667188,0.373398437 16.2933203,0 15.8332812,0 L15,0 C14.5399609,0 14.1667188,0.373398437 14.1667188,0.83328125 L14.1667188,2.5 L5.83328125,2.5 L5.83328125,0.83328125 C5.83328125,0.373398437 5.46003906,0 5,0 L4.16671875,0 C3.70667969,0 3.33328125,0.373398437 3.33328125,0.83328125 L3.33328125,2.5 L2.5,2.5 C1.12167969,2.5 0,3.62167969 0,5 L0,17.5 C0,18.8783203 1.12167969,20 2.5,20 L17.5,20 C18.8783203,20 20,18.8783203 20,17.5 L20,5 C20,3.62167969 18.8783203,2.5 17.5,2.5 Z M18.3332812,17.5 C18.3332812,17.9591406 17.9591406,18.3332813 17.5,18.3332813 L2.5,18.3332813 C2.04085937,18.3332813 1.66671875,17.9591406 1.66671875,17.5 L1.66671875,8.36671875 L18.3332812,8.36671875 L18.3332812,17.5 Z" id="Fill-1"></path>
                    </g>
                    <text id="+" font-family="ProximaNova-Bold, Proxima Nova" font-size="13" font-weight="bold">
                        <tspan x="1.724" y="12">+ </tspan>
                    </text>
                </g>
            </g>
        </g>
    </g>
</svg>