<?xml version="1.0" encoding="UTF-8"?>
<svg width="17px" height="16px" viewBox="0 0 17 16" version="1.1" xmlns="http://www.w3.org/2000/svg" xmlns:xlink="http://www.w3.org/1999/xlink">
    <!-- Generator: sketchtool 63.1 (101010) - https://sketch.com -->
    <title>86C9DC60-4D35-4221-B73C-98766E3CF7F2</title>
    <desc>Created with sketchtool.</desc>
    <g id="Element-Sheet" stroke="none" stroke-width="1" fill="none" fill-rule="evenodd">
        <g transform="translate(-16.000000, -698.000000)" fill="#000000" id="Icons/ic-calendar">
            <path d="M31.3653846,699.333333 L29.7307692,699.333333 L29.7307692,700.333333 C29.7307692,700.516667 29.5836538,700.666667 29.4038462,700.666667 L28.75,700.666667 C28.5701923,700.666667 28.4230769,700.516667 28.4230769,700.333333 L28.4230769,699.333333 L20.5769231,699.333333 L20.5769231,700.333333 C20.5769231,700.516667 20.4298077,700.666667 20.25,700.666667 L19.5961538,700.666667 C19.4163462,700.666667 19.2692308,700.516667 19.2692308,700.333333 L19.2692308,699.333333 L17.6346154,699.333333 C16.7355769,699.333333 16,700.083333 16,701 L16,712.333333 C16,713.25 16.7355769,714 17.6346154,714 L31.3653846,714 C32.2644231,714 33,713.25 33,712.333333 L33,701 C33,700.083333 32.2644231,699.333333 31.3653846,699.333333 Z M31.6923077,711.833333 C31.6923077,712.291667 31.3245192,712.666667 30.875,712.666667 L18.125,712.666667 C17.6754808,712.666667 17.3076923,712.291667 17.3076923,711.833333 L17.3076923,704.333333 C17.3076923,704.15 17.4548077,704 17.6346154,704 L31.3653846,704 C31.5451923,704 31.6923077,704.15 31.6923077,704.333333 L31.6923077,711.833333 Z M20.5769231,698.333333 C20.5769231,698.15 20.4298077,698 20.25,698 L19.5961538,698 C19.4163462,698 19.2692308,698.15 19.2692308,698.333333 L19.2692308,699.333333 L20.5769231,699.333333 L20.5769231,698.333333 Z M29.7307692,698.333333 C29.7307692,698.15 29.5836538,698 29.4038462,698 L28.75,698 C28.5701923,698 28.4230769,698.15 28.4230769,698.333333 L28.4230769,699.333333 L29.7307692,699.333333 L29.7307692,698.333333 Z"></path>
        </g>
    </g>
</svg>