<?xml version="1.0" encoding="UTF-8"?>
<svg width="19px" height="17px" viewBox="0 0 19 17" version="1.1" xmlns="http://www.w3.org/2000/svg" xmlns:xlink="http://www.w3.org/1999/xlink">
    <g id="09-Events" stroke="none" stroke-width="1" fill="none" fill-rule="evenodd">
        <g transform="translate(-883.000000, -399.000000)" fill="#C3C3C3" id="row">
            <g transform="translate(42.000000, 372.000000)">
                <g id="ic/edit" transform="translate(841.000000, 27.000000)">
                    <g>
                        <path d="M2.7260457,17 L13.2739545,17 C14.7795075,17 16,15.7795069 16,14.2739539 L16,10.8770917 C16,10.5289547 15.7182108,10.2480042 15.3709126,10.2480042 C15.0236144,10.2480042 14.7418252,10.5289547 14.7418252,10.8770917 L14.7418252,14.2739539 C14.7418252,14.6630445 14.5870109,15.0365547 14.311781,15.3117804 C14.0365511,15.5870061 13.6630241,15.7418246 13.2739545,15.7418246 L2.7260457,15.7418246 C1.91592789,15.7418246 1.25817505,15.0840717 1.25817505,14.2739539 L1.25817505,3.72604542 C1.25817505,2.91510982 1.91592789,2.25817481 2.7260457,2.25817481 L6.12290809,2.25817481 C6.47104507,2.25817481 6.75199551,1.97638559 6.75199551,1.62908741 C6.75199551,1.28178922 6.47104507,1 6.12290809,1 L2.7260457,1 C1.22049272,1 0,2.22049248 0,3.72604542 L0,14.2739539 C0,15.7795069 1.22049272,17 2.7260457,17 Z" id="Fill-1"></path>
                        <path d="M18.3314758,0.668212978 C17.429863,-0.222737659 15.9796702,-0.222737659 15.0782539,0.668212978 L6.88951584,8.85308532 C6.80762846,8.93067136 6.74706674,9.02871958 6.71465244,9.13700217 L6.03736737,11.6247668 C5.94950985,11.9513105 6.01860097,12.3008809 6.22331942,12.5702833 C6.42889168,12.8388562 6.74704927,12.9982757 7.0856918,13 L7.36974275,12.9565176 L9.85868239,12.2582498 L9.85868239,12.2573964 C9.96701176,12.2249974 10.0651063,12.1644642 10.1427333,12.0834667 L18.3314714,3.91998418 C19.2228429,3.018797 19.2228429,1.56928885 18.3314714,0.668298101 L18.3314758,0.668212978 Z M9.35705559,11.0571077 L7.41394447,11.6027659 L7.95986034,9.66057208 L14.8809818,2.69841054 L16.278177,4.0949462 L9.35705559,11.0571077 Z M17.3922821,3.00362989 L17.2174187,3.17841074 L15.8202235,1.78187508 L15.9950869,1.60709423 C16.3849145,1.22938965 17.003328,1.22938965 17.3922821,1.60709423 C17.7701651,1.99586475 17.7701651,2.61400814 17.3922821,3.00362989 Z" id="Fill-2"></path>
                    </g>
                </g>
            </g>
        </g>
    </g>
</svg>