<?xml version="1.0" encoding="UTF-8"?>
<svg width="51px" height="70px" viewBox="0 0 51 70" version="1.1" xmlns="http://www.w3.org/2000/svg" xmlns:xlink="http://www.w3.org/1999/xlink">
    <!-- Generator: Sketch 59 (86127) - https://sketch.com -->
    <title>ic/file-yellow</title>
    <desc>Created with Sketch.</desc>
    <g id="Element-Sheet" stroke="none" stroke-width="1" fill="none" fill-rule="evenodd">
        <g id="Tablet" transform="translate(-330.000000, -775.000000)" fill="currentColor">
            <path d="M364.536453,775 L336.188885,775 C332.722119,775 330,777.850549 330,781.19469 L330,838.80531 C330,842.275327 332.847877,845 336.188885,845 L374.806288,845 C378.273054,845 380.995173,842.149451 380.995173,838.80531 L381,791.852035 L364.536453,775 Z M365.52764,781.441487 L374.685209,790.733522 L365.52764,790.733522 L365.52764,781.441487 Z M377.286521,838.805558 C377.286521,840.170372 376.174452,841.283434 374.810967,841.283434 L336.188612,841.283434 C334.825077,841.283434 333.713059,840.170322 333.713059,838.805558 L333.713059,781.32131 C333.713059,779.956496 334.825127,778.843434 336.188612,778.843434 L361.809358,778.843434 L361.809358,794.576708 L377.28157,794.576708 L377.286521,838.805558 Z M341.637307,832.610867 L369.361035,832.610867 L369.361035,828.894053 L341.637307,828.894053 L341.637307,832.610867 Z M341.637307,819.602018 L369.361035,819.602018 L369.361035,815.885204 L341.637307,815.885204 L341.637307,819.602018 Z M341.637307,806.471752 L369.361035,806.471752 L369.361035,802.754938 L341.637307,802.754938 L341.637307,806.471752 Z" id="ic/file-yellow"></path>
        </g>
    </g>
</svg>