<?xml version="1.0" encoding="UTF-8"?>
<svg width="36px" height="36px" viewBox="0 0 36 36" version="1.1" xmlns="http://www.w3.org/2000/svg" xmlns:xlink="http://www.w3.org/1999/xlink">
    <!-- Generator: Sketch 59 (86127) - https://sketch.com -->
    <title>ic/file-circle-green</title>
    <desc>Created with Sketch.</desc>
    <g id="Element-Sheet" stroke="none" stroke-width="1" fill="none" fill-rule="evenodd">
        <g id="Tablet" transform="translate(-239.000000, -631.000000)">
            <g id="ic/file-circle-green" transform="translate(239.571429, 631.000000)">
                <rect id="Rectangle" fill="#1EC987" x="0" y="0" width="36" height="36" rx="18"></rect>
                <g id="ic/matters" transform="translate(10.000000, 8.000000)" fill="#FFFFFF">
                    <path d="M10.8191875,0.5 L2.75958488,0.5 C1.77393582,0.5 1,1.31444248 1,2.2699115 L1,18.7300885 C1,19.7215221 1.80969058,20.5 2.75958488,20.5 L13.7390426,20.5 C14.7246917,20.5 15.4986275,19.6855575 15.4986275,18.7300885 L15.5,5.31486726 L10.8191875,0.5 Z M11.1009956,2.34042478 L13.7046181,4.99529204 L11.1009956,4.99529204 L11.1009956,2.34042478 Z M14.4442068,18.7301593 C14.4442068,19.1201062 14.1280306,19.4381239 13.7403729,19.4381239 L2.75950746,19.4381239 C2.37183572,19.4381239 2.05567351,19.120092 2.05567351,18.7301593 L2.05567351,2.3060885 C2.05567351,1.91614159 2.3718498,1.59812389 2.75950746,1.59812389 L10.043837,1.59812389 L10.043837,6.09334513 L14.4427992,6.09334513 L14.4442068,18.7301593 Z M4.30864599,16.9602478 L12.1908824,16.9602478 L12.1908824,15.8983009 L4.30864599,15.8983009 L4.30864599,16.9602478 Z M4.30864599,13.2434336 L12.1908824,13.2434336 L12.1908824,12.1814867 L4.30864599,12.1814867 L4.30864599,13.2434336 Z M4.30864599,9.4919292 L12.1908824,9.4919292 L12.1908824,8.4299823 L4.30864599,8.4299823 L4.30864599,9.4919292 Z" id="Fill-1"></path>
                </g>
            </g>
        </g>
    </g>
</svg>