<svg id="Capa_1" enable-background="new 0 0 512 512" height="512" viewBox="0 0 512 512" width="512" xmlns="http://www.w3.org/2000/svg"><g><path d="m250 351h12c57.897 0 105-47.103 105-105v-140c0-58.449-47.103-106-105-106h-12c-57.833 0-104.896 47.448-105 105.808v140.192c0 57.897 47.103 105 105 105zm0-321h12c38.348 0 70.047 29.322 74.456 67h-24.456c-8.284 0-15 6.716-15 15s6.716 15 15 15h25v34h-41c-8.284 0-15 6.716-15 15s6.716 15 15 15h41v34h-25c-8.284 0-15 6.716-15 15s6.716 15 15 15h24.441c-4.463 37.125-36.133 66-74.441 66h-12c-38.307 0-69.978-28.875-74.441-66h24.441c8.284 0 15-6.716 15-15s-6.716-15-15-15h-25v-34h41c8.284 0 15-6.716 15-15s-6.716-15-15-15h-41v-34h25c8.284 0 15-6.716 15-15s-6.716-15-15-15h-24.456c4.409-37.678 36.108-67 74.456-67z"/><path d="m431 240c0-8.284-6.716-15-15-15s-15 6.716-15 15c0 79.953-65.047 145-145 145s-145-65.047-145-145c0-8.284-6.716-15-15-15s-15 6.716-15 15c0 91.442 70.501 166.716 160 174.35v67.65h-81c-8.284 0-15 6.716-15 15s6.716 15 15 15h192c8.284 0 15-6.716 15-15s-6.716-15-15-15h-81v-67.65c89.499-7.634 160-82.908 160-174.35z"/></g></svg>