<?xml version="1.0" encoding="UTF-8"?>
<svg width="36px" height="36px" viewBox="0 0 36 36" version="1.1" xmlns="http://www.w3.org/2000/svg" xmlns:xlink="http://www.w3.org/1999/xlink">
    <!-- Generator: sketchtool 63.1 (101010) - https://sketch.com -->
    <title>5ABCCF17-469F-4C7C-9507-2E665195E13F</title>
    <desc>Created with sketchtool.</desc>
    <g id="Element-Sheet" stroke="none" stroke-width="1" fill="none" fill-rule="evenodd">
        <g transform="translate(-221.000000, -823.000000)" fill="#F27926" id="Icons/ic-circle-profile">
            <path d="M239.04788,823 C248.96912,823 257,831.03124 257,841.04788 C257,850.96912 248.96876,859 239.04788,859 C229.03268,859 221,850.96876 221,841.04788 C221,831.03268 229.03124,823 239.04788,823 Z M234.89096,844.6378 L243.11192,844.6378 C246.041132,844.6378 248.3096,846.906088 248.3096,849.73972 L248.3096,850.21222 L229.69508,850.21222 L229.69508,849.73972 C229.69508,846.90472 231.963368,844.6378 234.89276,844.6378 L234.89096,844.6378 Z M239.04788,831.7876 C241.788668,831.7876 244.1498,834.1501 244.1498,836.98528 C244.1498,839.82046 241.7873,842.0872 239.04788,842.0872 C236.21288,842.0872 233.8502,839.818912 233.8502,836.98528 C233.8502,834.15028 236.2127,831.7876 239.04788,831.7876 Z"></path>
        </g>
    </g>
</svg>