<svg xmlns="http://www.w3.org/2000/svg" xmlns:xlink="http://www.w3.org/1999/xlink" width="25" height="23.908629530089087" version="1.1" style="">
    <rect id="backgroundrect" width="100%" height="100%" x="0" y="0" fill="none" stroke="none" class="" style="" />
    <!-- Generator: sketchtool 63.1 (101010) - https://sketch.com -->
    <title>F67353C2-CD51-472C-A7E1-26C6EF9032EC</title>
    <desc>Created with sketchtool.</desc>
    <defs>
        <linearGradient x1="50%" y1="0%" x2="50%" y2="98.902027%" id="linearGradient-1">
            <stop stop-color="#569FC3" offset="0%" />
            <stop stop-color="#2D678A" offset="100%" />
        </linearGradient>
    </defs>

    <g class="currentLayer" style="">
        <title>Layer 1</title>


        <g id="Group-2" fill="currentColor" class="" fill-opacity="1">
            <g id="Icons/ic-opportunities" fill="currentColor" fill-opacity="1">
                <g id="ic/matters" fill="currentColor" fill-opacity="1">
                    <path d="M19.247365528805542,-0.19796901941299438 L9.486366588805542,-0.19796901941299438 C8.292645261805543,-0.19796901941299438 7.355330228805542,0.779361953587113 7.355330228805542,1.9259247905870325 L7.355330228805542,21.6781371805871 C7.355330228805542,22.867857480586963 8.335947920805541,23.802030980587006 9.486366588805542,23.802030980587006 L22.783607228805543,23.802030980587006 C23.977328628805537,23.802030980587006 24.914643628805543,22.824699980586956 24.914643628805543,21.6781371805871 L24.91630582880554,5.57987169058697 L19.247365528805542,-0.19796901941299438 zM19.588663828805544,2.0105407105870654 L22.741915628805543,5.196381420586931 L19.588663828805544,5.196381420586931 L19.588663828805544,2.0105407105870654 zM23.637632828805543,21.678222180587 C23.637632828805543,22.14615838058694 23.25471122880554,22.527779680586946 22.78521832880554,22.527779680586946 L9.486272818805542,22.527779680586946 C9.016762888805541,22.527779680586946 8.63385827880554,22.146141380587096 8.63385827880554,21.678222180587 L8.63385827880554,1.969337170587096 C8.63385827880554,1.5014008905870924 9.016779938805541,1.1197796505869064 9.486272818805542,1.1197796505869064 L18.30833712880554,1.1197796505869064 L18.30833712880554,6.514045140587086 L23.635928028805537,6.514045140587086 L23.637632828805543,21.678222180587 zM11.36243723880554,19.554328280587015 L20.90862772880554,19.554328280587015 L20.90862772880554,18.279992080586908 L11.36243723880554,18.279992080586908 L11.36243723880554,19.554328280587015 zM11.36243723880554,15.094151380586936 L20.90862772880554,15.094151380586936 L20.90862772880554,13.819815080586977 L11.36243723880554,13.819815080586977 L11.36243723880554,15.094151380586936 zM11.36243723880554,10.59234598058697 L20.90862772880554,10.59234598058697 L20.90862772880554,9.318009740587058 L11.36243723880554,9.318009740587058 L11.36243723880554,10.59234598058697 z" id="Fill-1" fill="currentColor" fill-opacity="1" />
                </g>
            </g>
            <text id="+" font-family="ProximaNova-Bold, Proxima Nova" font-size="13" font-weight="bold" y="-3.1979690194129944" x="-2.644669771194458" fill="currentColor" fill-opacity="1">
                <tspan x="-0.9206697711944578" y="8.802030980587006" id="svg_2">+ </tspan>
            </text>
        </g>
    </g>
</svg>