<?xml version="1.0" encoding="UTF-8"?>
<svg width="70px" height="63px" viewBox="0 0 70 63" version="1.1" xmlns="http://www.w3.org/2000/svg" xmlns:xlink="http://www.w3.org/1999/xlink">
    <!-- Generator: Sketch 59 (86127) - https://sketch.com -->
    <title>ic/opportunities-yellow</title>
    <desc>Created with Sketch.</desc>
    <g id="Element-Sheet" stroke="none" stroke-width="1" fill="none" fill-rule="evenodd">
        <g id="Tablet" transform="translate(-136.000000, -782.000000)" fill="#FFDE8D">
            <path d="M180.016556,782 C174.891733,782 170.124399,783.464269 166.101858,786.011345 C165.744672,786.235908 165.496195,786.592738 165.403014,787.001857 C165.312943,787.407914 165.390595,787.8355 165.617325,788.189243 C165.844063,788.542987 166.20435,788.789095 166.617434,788.881381 C167.027416,788.970589 167.459154,788.89369 167.816324,788.669128 C171.341593,786.435869 175.503598,785.149967 180.016731,785.149967 C192.60516,785.149967 202.80185,795.224399 202.80185,807.716443 C202.80185,811.552413 201.839033,815.139219 200.143109,818.29881 C199.969176,818.62488 199.916371,818.997098 199.994023,819.357046 L202.304817,829.791364 L193.881257,827.945632 C193.461955,827.834894 193.014729,827.902563 192.645075,828.127126 C192.275469,828.351688 192.011463,828.714668 191.921383,829.136065 C191.828203,829.557501 191.915174,829.994278 192.15744,830.351171 C192.402808,830.708001 192.781741,830.951022 193.210346,831.021771 L204.043932,833.408828 C204.581262,833.534953 205.143432,833.374989 205.534792,832.990471 C205.923036,832.602873 206.08455,832.046106 205.957203,831.513916 L203.199071,819.135272 C204.935308,815.683836 205.982011,811.829438 205.982011,807.716585 C205.982011,793.52355 194.322289,782 180.016389,782 L180.016556,782 Z M161.952098,793.516683 C147.643018,793.516683 136.011127,805.064961 136.011127,819.258783 C136.011127,823.374707 137.060931,827.225876 138.794066,830.67747 L136.035935,843.080527 C135.921015,843.609629 136.08563,844.157191 136.473874,844.538654 C136.862118,844.917022 137.418086,845.073906 137.949229,844.95086 L150.373065,842.219195 C153.867245,843.957198 157.786975,845 161.951684,845 C176.260765,845 187.892657,833.452164 187.892657,819.258342 C187.892657,805.06452 176.260765,793.516683 161.951684,793.516683 L161.952098,793.516683 Z M161.952098,796.666871 C174.537346,796.666871 184.712568,806.765951 184.712568,819.258783 C184.712568,831.751614 174.537346,841.850458 161.952098,841.850458 C158.07276,841.850458 154.410809,840.887587 151.217902,839.19266 C150.882455,839.017317 150.494211,838.961948 150.124605,839.045005 L139.688581,841.333625 L141.999375,830.92372 C142.083237,830.55766 142.027332,830.173142 141.850289,829.840913 C140.154445,826.678646 139.19155,823.09491 139.19155,819.258546 C139.19155,806.766503 149.36677,796.666871 161.952018,796.666871 L161.952098,796.666871 Z M150.273293,816.699422 C148.853835,816.699422 147.689135,817.852945 147.689135,819.258783 C147.689135,820.66462 148.853835,821.818144 150.273293,821.818144 C151.692751,821.818144 152.832643,820.66462 152.832643,819.258783 C152.832643,817.852945 151.692751,816.699422 150.273293,816.699422 Z M161.952098,816.699422 C160.53264,816.699422 159.36794,817.852945 159.36794,819.258783 C159.36794,820.66462 160.53264,821.818144 161.952098,821.818144 C163.371556,821.818144 164.511448,820.66462 164.511448,819.258783 C164.511448,817.852945 163.371556,816.699422 161.952098,816.699422 Z M173.630903,816.699422 C172.211444,816.699422 171.046744,817.852945 171.046744,819.258783 C171.046744,820.66462 172.211444,821.818144 173.630903,821.818144 C175.050361,821.818144 176.190253,820.66462 176.190253,819.258783 C176.190253,817.852945 175.050361,816.699422 173.630903,816.699422 Z" id="ic/opportunities-yellow"></path>
        </g>
    </g>
</svg>