<?xml version="1.0" encoding="UTF-8"?>
<svg width="18px" height="18px" viewBox="0 0 18 18" version="1.1" xmlns="http://www.w3.org/2000/svg" xmlns:xlink="http://www.w3.org/1999/xlink">
    <!-- Generator: sketchtool 63.1 (101010) - https://sketch.com -->
    <title>60EB0955-052B-434A-9816-FC969441A286</title>
    <desc>Created with sketchtool.</desc>
    <g id="Element-Sheet" stroke="none" stroke-width="1" fill="none" fill-rule="evenodd">
        <g transform="translate(-108.000000, -697.000000)" fill="#E64E44" id="Icons/ic-delete">
            <path d="M117,697 C121.97295,697 126,701.02705 126,706 C126,710.97295 121.97295,715 117,715 C112.02705,715 108,710.97295 108,706 C108,701.02705 112.02705,697 117,697 Z M113.814106,702.814106 C113.501243,703.126968 113.501243,703.63429 113.814106,703.947152 L115.740285,705.873332 C115.802858,705.935905 115.802858,706.037369 115.740285,706.099942 L113.814106,708.026121 C113.501243,708.338984 113.501243,708.846306 113.814106,709.159168 C114.126968,709.472031 114.63429,709.472031 114.947152,709.159168 L116.873332,707.232988 C116.935905,707.170416 117.037369,707.170416 117.099942,707.232988 L119.026121,709.159168 C119.338984,709.472031 119.846306,709.472031 120.159168,709.159168 C120.472031,708.846306 120.472031,708.338984 120.159168,708.026121 L118.232988,706.099942 C118.170416,706.037369 118.170416,705.935905 118.232988,705.873332 L120.159168,703.947152 C120.472031,703.63429 120.472031,703.126968 120.159168,702.814106 C119.846306,702.501243 119.338984,702.501243 119.026121,702.814106 L117.099942,704.740285 C117.037369,704.802858 116.935905,704.802858 116.873332,704.740285 L114.947152,702.814106 C114.63429,702.501243 114.126968,702.501243 113.814106,702.814106 Z"></path>
        </g>
    </g>
</svg>