<svg id="Capa_1" enable-background="new 0 0 512 512" height="512" viewBox="0 0 512 512" width="512" xmlns="http://www.w3.org/2000/svg"><g><path d="m431.604 94.391-89.995-89.995c-2.765-2.767-6.596-4.396-10.609-4.396h-240c-8.284 0-15 6.716-15 15v482c0 8.284 6.716 15 15 15h330c8.284 0 15-6.716 15-15v-392c0-4.121-1.698-7.914-4.396-10.609zm-85.604-43.178 38.787 38.787h-38.787zm-240 430.787v-452h210v75c0 8.284 6.716 15 15 15h75v362z"/><path d="m361 150h-210c-8.284 0-15 6.716-15 15v60c0 8.284 6.716 15 15 15h210c8.284 0 15-6.716 15-15v-60c0-8.284-6.716-15-15-15zm-15 60h-180v-30h180z"/><path d="m211 270h-60c-8.284 0-15 6.716-15 15v92c0 8.284 6.716 15 15 15h60c8.284 0 15-6.716 15-15v-92c0-8.284-6.716-15-15-15zm-15 92h-30v-62h30z"/><path d="m361 270h-90c-8.284 0-15 6.716-15 15v152c0 8.284 6.716 15 15 15h90c8.284 0 15-6.716 15-15v-152c0-8.284-6.716-15-15-15zm-15 152h-60v-122h60z"/><path d="m211 422h-60c-8.284 0-15 6.716-15 15s6.716 15 15 15h60c8.284 0 15-6.716 15-15s-6.716-15-15-15z"/></g></svg>