<?xml version="1.0" encoding="UTF-8"?>
<svg width="36px" height="36px" viewBox="0 0 36 36" version="1.1" xmlns="http://www.w3.org/2000/svg" xmlns:xlink="http://www.w3.org/1999/xlink">
    <!-- Generator: Sketch 59 (86127) - https://sketch.com -->
    <title>ic/arrows-circle-yellow</title>
    <desc>Created with Sketch.</desc>
    <g id="Element-Sheet" stroke="none" stroke-width="1" fill="none" fill-rule="evenodd">
        <g id="Tablet" transform="translate(-187.000000, -632.000000)">
            <g id="ic/arrows-circle-yellow" transform="translate(187.285714, 632.000000)">
                <rect id="ic/arrows-circle" fill="#F2C502" x="0" y="0" width="36" height="36" rx="18"></rect>
                <g id="ic/conversion" transform="translate(8.000000, 12.000000)" fill="#FFFFFF">
                    <g>
                        <path d="M4.84615385,9.28846154 C4.9550025,9.39257712 5.09855769,9.45252404 5.25,9.45410308 C5.49451673,9.447795 5.71062692,9.29477365 5.79898846,9.06761019 C5.88735,8.84044673 5.82896192,8.58174288 5.65385423,8.41136019 L2.58397731,5.48820058 L12.4261119,5.48820058 C12.760545,5.48820058 13.0318812,5.21686442 13.0318812,4.88243135 C13.0318812,4.54799827 12.760545,4.27666212 12.4261119,4.27666212 L2.53995808,4.27666212 L5.65397538,1.17996981 C5.87798481,0.941765192 5.87325173,0.569475577 5.64293423,0.337587115 C5.41419173,0.105690577 5.04189,0.0978034615 4.80212654,0.318654808 L0.642107308,4.44232788 L0.197230385,4.87771442 L4.84615385,9.28846154 Z" id="Fill-1"></path>
                        <path d="M18.4476923,8.2425 L8.60555769,8.2425 C8.27112462,8.2425 7.99978846,8.51383615 7.99978846,8.84826923 C7.99978846,9.18270231 8.27112462,9.45403846 8.60555769,9.45403846 L18.4917115,9.45403846 L15.3461135,12.5507308 C15.1126419,12.7889354 15.1126419,13.1707154 15.3461135,13.4073288 C15.4596952,13.5224896 15.6158706,13.5871656 15.77835,13.5856187 C15.9376794,13.5856187 16.0922758,13.5224896 16.2058615,13.4120619 L20.3893038,9.28838885 L20.8294154,8.85300231 L16.2057808,4.44219462 C16.092199,4.31757173 15.9328696,4.24657962 15.7640538,4.24500462 C15.5968373,4.24185058 15.4343498,4.31125962 15.3191769,4.43272846 C15.2024412,4.55577635 15.1424942,4.71983885 15.1535354,4.88705538 C15.1645765,5.05585096 15.2434558,5.21202635 15.3743867,5.31929192 L18.4476923,8.2425 Z" id="Fill-2"></path>
                    </g>
                </g>
            </g>
        </g>
    </g>
</svg>