<?xml version="1.0" encoding="UTF-8"?>
<svg width="70px" height="46px" viewBox="0 0 70 46" version="1.1" xmlns="http://www.w3.org/2000/svg" xmlns:xlink="http://www.w3.org/1999/xlink">
    <!-- Generator: Sketch 59 (86127) - https://sketch.com -->
    <title>ic/arrows-yellow</title>
    <desc>Created with Sketch.</desc>
    <g id="Element-Sheet" stroke="none" stroke-width="1" fill="none" fill-rule="evenodd">
        <g id="Tablet" transform="translate(-233.000000, -791.000000)" fill="#FFDE8D">
            <g id="ic/arrows-yellow" transform="translate(233.000000, 791.000000)">
                <path d="M15.5753135,31.4297999 C15.9399897,31.7882047 16.4209434,31.9945644 16.9283214,32 C17.7475271,31.9782852 18.4715623,31.4515286 18.7676004,30.6695471 C19.0636386,29.8875656 18.8680207,28.9970103 18.2813564,28.4104895 L7.99633115,18.3478821 L40.9704881,18.3478821 C42.090941,18.3478821 43,17.4138417 43,16.2625981 C43,15.1113545 42.090941,14.1773141 40.9704881,14.1773141 L7.84885328,14.1773141 L18.2817623,3.51734236 C19.0322623,2.69735309 19.0164051,1.41579316 18.2447711,0.617546451 C17.4784139,-0.180728063 16.2310894,-0.20787846 15.4278085,0.552374375 L1.49047357,14.7475976 L0,16.2463607 L15.5753135,31.4297999 Z" id="Fill-1"></path>
                <path d="M62.0173756,27.6952172 L29.0303067,27.6952172 C27.909415,27.6952172 27,28.6247772 27,29.7704985 C27,30.9162198 27.909415,31.8457797 29.0303067,31.8457797 L62.1649113,31.8457797 L51.6220702,42.4546177 C50.839563,43.2706736 50.839563,44.5785989 51.6220702,45.3892038 C52.0027527,45.7837286 52.5261928,46.0052994 53.0707617,46 C53.604773,46 54.1229207,45.7837286 54.5036168,45.4054186 L68.5249145,31.2782872 L70,29.7867133 L54.5033461,14.6758985 C54.1226636,14.2489578 53.5886523,14.0057487 53.0228465,14.000353 C52.4624006,13.9895477 51.9178047,14.2273334 51.5317893,14.6434688 C51.1405356,15.0650138 50.9396165,15.6270691 50.9766222,16.1999298 C51.0136279,16.7782 51.2780009,17.3132352 51.7168314,17.6807121 L62.0173756,27.6952172 Z" id="Fill-2"></path>
            </g>
        </g>
    </g>
</svg>