<svg xmlns="http://www.w3.org/2000/svg" xmlns:xlink="http://www.w3.org/1999/xlink" version="1.1" width="800" height="800" xml:space="preserve" style=""><rect id="backgroundrect" width="100%" height="100%" x="0" y="0" fill="none" stroke="none"/>

<g class="currentLayer" style=""><title>Layer 1</title>
    
	<path fill="#afaaaa" d="M600.4303211131498,172.7671906527611 c-4.200686323046685,-6.007900468468666 -9.857414471507074,-10.401452283024788 -16.957739643454552,-13.188541305899621 c-4.521988481879234,-1.9275300396680841 -9.261195324659347,-2.892984887123108 -14.215357837080955,-2.892984887123108 V156.68115825274907 H230.74277238992903 c-4.951899821162224,0 -9.686581281423567,0.9654548474550256 -14.209701108932496,2.892984887123108 c-7.104850554466248,2.784835919380188 -12.759316011667252,7.18402049267292 -16.957739643454552,13.188541305899621 c-4.197292286157608,6.0045208132267 -6.299332466125488,12.648923018932342 -6.299332466125488,19.941092479348182 v414.5924474977255 c0,7.2944225639104845 2.1020401799678803,13.936571666121484 6.299332466125488,19.94672523808479 c4.198423631787301,6.003394261479378 9.852889088988304,10.401452283024788 16.957739643454552,13.185161650657655 c4.518594444990158,1.9275300396680841 9.25780128777027,2.8907317836284636 14.209701108932496,2.8907317836284636 c10.124412040114402,0 19.056385786533358,-3.539625590085983 26.810628732442858,-10.609864356279372 l142.44772823452948,-136.38260763430594 l142.44772823452948,136.38598728954793 c7.5381559306383155,6.850561175465584 16.474655059576033,10.282037797808648 26.80723469555378,10.282037797808648 c5.385205197334289,0 10.123280694484711,-0.8516731209754956 14.215357837080955,-2.567411432147026 c7.100325171947479,-2.783709367632866 12.757053320407866,-7.181767389178276 16.957739643454552,-13.193047512888908 c4.197292286157608,-6.002267709732056 6.29480708360672,-12.645543363690376 6.29480708360672,-19.93883937585354 V192.7082831321093 C606.7251281967566,185.41611367169344 604.6230880167886,178.7717114659878 600.4303211131498,172.7671906527611 zM565.3812335052892,597.3194821485611 L428.74975315300674,466.7352363577219 l-28.748623796105388,-27.334651597023008 l-28.746361104846,27.334651597023008 L234.62441924540252,597.3194821485611 V197.85549806562386 h330.75681425988677 V597.3194821485611 L565.3812335052892,597.3194821485611 z" id="svg_3" class=""/>
</g></svg>