<svg height='300px' width='300px' fill="#000000" xmlns="http://www.w3.org/2000/svg" xmlns:xlink="http://www.w3.org/1999/xlink" viewBox="0 0 22 22" version="1.1" x="0px" y="0px"><defs><path d="M13.2916966,15.1445659 C13.8384534,15.2553822 14.4107234,15.3142277 15,15.3142277 C16.2531631,15.3142277 17.4294138,15.0481002 18.4469404,14.5819621 L21.2524048,16 L20.465554,13.1919485 C21.4257122,12.2235846 22,10.9945493 22,9.65711384 C22,6.532776 18.8659934,4 15,4 C14.1898415,4 13.4118285,4.11122812 12.6880667,4.31581947 C11.3706977,3.488019 9.75104727,3 8,3 C3.58172178,3 0,6.10704192 0,9.93977279 C0,11.4693496 0.570450256,12.8833481 1.53686605,14.0304077 L0.557173295,18 L4.50794837,16.1852517 C5.5631473,16.6300521 6.74798617,16.8795456 8,16.8795456 C10.0289159,16.8795456 11.8814243,16.2243528 13.2916966,15.1445659 L13.2916966,15.1445659 Z M13.7381153,5.10412487 C13.7413012,5.1035907 13.744488,5.10305851 13.7476758,5.1025283 C14.1515899,5.03534647 14.5705254,5 15,5 C18.3137085,5 21,7.10426168 21,9.7 C21,10.8536836 20.4693542,11.9102817 19.5888246,12.7281973 L19.4257202,12.8596802 L19.991272,14.4846802 L18.3517968,13.5988266 C17.3947525,14.104677 16.2414037,14.4 15,14.4 C14.7255062,14.4 14.4553175,14.385561 14.1906043,14.3575998 C14.1843281,14.3569368 14.178055,14.3562663 14.171785,14.3555882 C15.3138738,13.155772 16,11.6172801 16,9.93977279 C16,8.05952354 15.1380024,6.35392272 13.7381153,5.10412487 L13.7381153,5.10412487 Z M2.60423385,13.8225464 L1.79547119,16.5585327 L4.466935,15.1808086 C5.50397897,15.7015172 6.71132276,16 8,16 C11.8659932,16 15,13.3137085 15,10 C15,6.6862915 11.8659932,4 8,4 C4.13400675,4 1,6.6862915 1,10 C1,11.4525396 1.60218134,12.7845247 2.60423385,13.8225464 Z M5,11 C5.55228475,11 6,10.5522847 6,10 C6,9.44771525 5.55228475,9 5,9 C4.44771525,9 4,9.44771525 4,10 C4,10.5522847 4.44771525,11 5,11 Z M8,11 C8.55228475,11 9,10.5522847 9,10 C9,9.44771525 8.55228475,9 8,9 C7.44771525,9 7,9.44771525 7,10 C7,10.5522847 7.44771525,11 8,11 Z M11,11 C11.5522847,11 12,10.5522847 12,10 C12,9.44771525 11.5522847,9 11,9 C10.4477153,9 10,9.44771525 10,10 C10,10.5522847 10.4477153,11 11,11 Z" id="a"></path></defs><g stroke="none" stroke-width="1" fill="none" fill-rule="evenodd"><g><use fill="#ffffff" fill-rule="evenodd" xlink:href="#a"></use><use fill="none" xlink:href="#a"></use></g></g></svg>