<?xml version="1.0" encoding="UTF-8"?>
<svg width="30px" height="30px" viewBox="0 0 30 30" version="1.1" xmlns="http://www.w3.org/2000/svg" xmlns:xlink="http://www.w3.org/1999/xlink">
    <title>3C41AEE9-CD4E-4D09-8BF8-FD2DB74BBD3D</title>
    <g id="Element-Sheet" stroke="none" stroke-width="1" fill="none" fill-rule="evenodd">
        <g transform="translate(-732.000000, -795.000000)" fill="#2D678A" fill-rule="nonzero" id="ic/checked">
            <g transform="translate(732.000000, 795.000000)">
                <path d="M15,0 C6.71394231,0 0,6.71394231 0,15 C0,23.2860577 6.71394231,30 15,30 C23.2860577,30 30,23.2860577 30,15 C30,6.71394231 23.2860577,0 15,0 Z M22.6802885,10.8533654 L13.0384615,20.5384615 L13.03125,20.5384615 C12.9086538,20.6610577 12.5769231,20.9350962 12.1947115,20.9350962 C11.9206731,20.9350962 11.6105769,20.7836538 11.3509615,20.5240385 L7.3125,16.4855769 C7.19711538,16.3701923 7.19711538,16.1899038 7.3125,16.0745192 L8.59615385,14.7908654 C8.65384615,14.7331731 8.72596154,14.7043269 8.79807692,14.7043269 C8.87019231,14.7043269 8.94230769,14.7331731 9,14.7908654 L12.2019231,17.9927885 L21,9.12980769 C21.0576923,9.07211538 21.1298077,9.04326923 21.2019231,9.04326923 C21.28125,9.04326923 21.3533654,9.07211538 21.4038462,9.12980769 L22.6658654,10.4350962 C22.7956731,10.5576923 22.7956731,10.7379808 22.6802885,10.8533654 L22.6802885,10.8533654 Z" id="Shape"></path>
            </g>
        </g>
    </g>
</svg>