<?xml version="1.0" encoding="iso-8859-1"?>
<svg version="1.1" id="Layer_1" xmlns="http://www.w3.org/2000/svg" xmlns:xlink="http://www.w3.org/1999/xlink" x="0px" y="0px"
	 viewBox="0 0 370.909 370.909" style="enable-background:new 0 0 370.909 370.909;" xml:space="preserve"
	 fill="#6E6057"
>
<g>
	<g>
		<path d="M330.466,81.957L252.219,3.709C249.745,1.236,247.272,0,243.564,0H58.109C45.745,0,34.618,11.128,34.618,23.491v323.927
			c0,12.364,11.128,23.491,23.491,23.491H312.8c13.6,0,23.491-11.128,23.491-23.491V92.728
			C336.291,87.802,334.102,83.978,330.466,81.957z M255.927,42.036l38.327,38.327h-32.145c-3.709,0-6.182-2.472-6.182-6.182
			L255.927,42.036z M311.564,346.182H59.345v-0.001V24.727H231.2v49.455c0,16.073,14.836,30.909,30.909,30.909h49.455V346.182z"/>
	</g>
</g>
<g>
	<g>
		<path d="M278.181,184.219H93.963c-7.418,0-12.364,4.945-12.364,12.364c0,7.418,4.945,12.364,12.364,12.364h184.219
			c6.182,0,12.364-4.945,12.364-12.364C290.545,189.164,285.599,184.219,278.181,184.219z"/>
	</g>
</g>
<g>
	<g>
		<path d="M278.181,138.472H93.963c-7.418,0-12.364,4.945-12.364,12.364c0,7.418,4.945,12.364,12.364,12.364h184.219
			c6.182,0,12.364-4.944,12.364-12.364C290.545,143.418,285.599,138.472,278.181,138.472z"/>
	</g>
</g>
<g>
	<g>
		<path d="M278.181,231.2H93.963c-7.418,0-12.364,4.945-12.364,12.364c0,7.418,4.945,12.364,12.364,12.364h184.219
			c6.182,0,12.364-4.944,12.364-12.364C290.545,236.145,285.599,231.2,278.181,231.2z"/>
	</g>
</g>
<g>
	<g>
		<path d="M278.181,276.945H93.963c-7.418,0-12.364,4.945-12.364,12.364c0,7.418,4.945,12.364,12.364,12.364h184.219
			c6.182,0,12.364-4.945,12.364-12.364C290.545,281.891,285.599,276.945,278.181,276.945z"/>
	</g>
</g>
</svg>
