<?xml version="1.0" encoding="UTF-8"?>
<svg width="24px" height="24px" viewBox="0 0 24 24" version="1.1" xmlns="http://www.w3.org/2000/svg" xmlns:xlink="http://www.w3.org/1999/xlink">
    <!-- Generator: sketchtool 63.1 (101010) - https://sketch.com -->
    <title>F049E45F-EEFF-4B73-9CDA-C42D17589569</title>
    <desc>Created with sketchtool.</desc>
    <g id="Element-Sheet" stroke="none" stroke-width="1" fill="none" fill-rule="evenodd">
        <g transform="translate(-13.000000, -598.000000)" fill="#000000" id="Icons/ic-filter">
            <g transform="translate(13.000000, 598.000000)">
                <g id="Fill-1">
                    <path d="M12,0 C18.597,0 24,5.403 24,12 C24,18.597 18.597,24 12,24 C5.403,24 0,18.597 0,12 C0,5.403 5.403,0 12,0 Z M16.8235294,10.1176471 L6.47058824,10.1176471 L10.3857281,14.372175 C10.4513018,14.4414169 10.4898746,14.5298926 10.4898746,14.6260619 L10.4898746,14.6260619 L10.4898746,20 L12.804243,18.0266068 L12.804243,14.6260619 C12.804243,14.5298926 12.8428158,14.4414169 12.9083896,14.372175 L12.9083896,14.372175 L16.8235294,10.1176471 Z M17.2941176,7 L6,7 L6,8.88235294 L17.2941176,8.88235294 L17.2941176,7 Z"></path>
                </g>
            </g>
        </g>
    </g>
</svg>