<?xml version="1.0" encoding="UTF-8"?>
<svg width="36px" height="36px" viewBox="0 0 36 36" version="1.1" xmlns="http://www.w3.org/2000/svg" xmlns:xlink="http://www.w3.org/1999/xlink">
    <!-- Generator: Sketch 61.1 (89650) - https://sketch.com -->
    <title>ic/ic-mappin-circle</title>
    <desc>Created with Sketch.</desc>
    <g id="Element-Sheet" stroke="none" stroke-width="1" fill="none" fill-rule="evenodd">
        <g transform="translate(-1081.000000, -127.000000)" id="ic/ic-mappin-circle">
            <g transform="translate(1081.000000, 127.000000)">
                <rect id="Rectangle" fill="#E64E44" x="0" y="0" width="36" height="36" rx="18"></rect>
                <path d="M18.500012,9 C14.9076721,9 12,12.0623291 12,15.8235887 C12,17.1791677 12.3912044,18.2101388 13.0306612,19.2582908 L18.2968746,27.8867187 C18.3410723,27.9571625 18.4172452,28 18.5,28 C18.5827548,28 18.6589277,27.9571625 18.7031254,27.8867187 L23.9693388,19.2582908 C24.6087956,18.2101876 25,17.1801912 25,15.8245635 C25,12.0633039 22.0923279,9.0009748 18.499988,9.0009748 L18.500012,9 Z M18.500012,9.48739919 C21.8215182,9.48739919 24.5185417,12.3165078 24.5185417,15.8235887 C24.5185417,17.0868299 24.1752929,18.0045051 23.5630881,19.0067928 L18.5000602,27.3011086 L13.4370323,19.0077676 C12.8248275,18.0044076 12.4815787,17.0876829 12.4815787,15.8245635 C12.4815787,12.3174826 15.1786022,9.48837399 18.5001083,9.48837399 L18.500012,9.48739919 Z M18.500012,12.4117943 C16.7743792,12.4117943 15.3703766,13.8330504 15.3703766,15.5798891 C15.3703766,17.3267278 16.7743792,18.7479838 18.500012,18.7479838 C20.2256449,18.7479838 21.6296475,17.3267278 21.6296475,15.5798891 C21.6296475,13.8330504 20.2256449,12.4117943 18.500012,12.4117943 Z M18.500012,12.8991935 C19.9651388,12.8991935 21.1481651,14.0967577 21.1481651,15.5798891 C21.1481651,17.0630205 19.9651388,18.2605846 18.500012,18.2605846 C17.0348852,18.2605846 15.851859,17.0630205 15.851859,15.5798891 C15.851859,14.0967577 17.0348852,12.8991935 18.500012,12.8991935 Z" id="Fill-1" stroke="#FFFFFF" fill="#FFFFFF" opacity="0.699999988"></path>
            </g>
        </g>
    </g>
</svg>