<?xml version="1.0" encoding="UTF-8"?>
<svg width="100px" height="100px" viewBox="0 0 100 100" version="1.1" xmlns="http://www.w3.org/2000/svg" xmlns:xlink="http://www.w3.org/1999/xlink">
    <title>D740AEB8-9B1A-4A9C-82D1-6835743C993A</title>
    <g id="13-Network" stroke="none" stroke-width="1" fill="none" fill-rule="evenodd">
        <g id="13.00-Network_Feed" transform="translate(-816.000000, -274.000000)">
            <g id="Group-9" transform="translate(748.000000, 274.000000)">
                <g id="ic/network/large" transform="translate(68.000000, 0.000000)">
                    <rect id="Rectangle" fill-opacity="0.444438374" fill="#A4A4A4" x="0" y="0" width="100" height="100" rx="50"></rect>
                    <g id="ic/network-large" transform="translate(20.000000, 21.666667)" fill="#FFFFFF" fill-rule="nonzero">
                        <path d="M32.733905,41.496327 C36.6769949,41.496327 39.9941975,44.4379972 40.4949073,48.3184984 L40.4949073,48.3184984 L41.2459721,54.63996 C41.3085608,55.4536134 40.807851,56.2046782 39.9941975,56.3924444 C36.8647611,57.0183317 33.5475585,57.393864 30.0425897,57.393864 C26.6002096,57.393864 23.2204183,57.0809204 20.0909818,56.3924444 C19.2773284,56.2672669 18.7140298,55.4536134 18.8392073,54.63996 L18.8392073,54.63996 L19.590272,48.3184984 C20.0283931,44.4379972 23.3455957,41.496327 27.2886856,41.496327 L27.2886856,41.496327 Z M14.2702301,37.803592 C16.6486018,37.803592 18.901796,38.9301891 20.278748,40.6826735 C18.1507313,42.4351579 16.7111905,44.9387071 16.3356581,47.8803773 L16.3356581,47.8803773 L15.6471821,53.5133629 C14.3328188,53.6385403 12.9558668,53.701129 11.516326,53.701129 C8.07394597,53.701129 4.69415464,53.3881854 1.56471821,52.6997094 C0.751064742,52.5119432 0.187766185,51.7608785 0.312943642,50.947225 L0.312943642,50.947225 L1.12659711,44.6883521 C1.56471821,40.7452622 4.88192082,37.803592 8.82501072,37.803592 L8.82501072,37.803592 Z M51.3227574,37.7410033 C55.2032585,37.7410033 58.5830499,40.6826735 59.021171,44.6257634 L59.021171,44.6257634 L59.7722357,50.947225 C59.8348244,51.7608785 59.3341146,52.5119432 58.5204611,52.6997094 C55.3910247,53.3255967 52.0738221,53.701129 48.5688533,53.701129 C47.1919013,53.701129 45.7523605,53.6385403 44.4379972,53.5133629 L44.4379972,53.5133629 L43.7495212,47.8803773 C43.4365776,44.9387071 41.9344481,42.4351579 39.8064313,40.6826735 C41.2459721,38.8676004 43.4365776,37.7410033 45.877538,37.7410033 L45.877538,37.7410033 Z M30.0425897,24.8477252 C34.0869053,24.8477252 37.3654709,28.1262908 37.3654709,32.1706064 C37.3654709,36.2149221 34.0869053,39.4934877 30.0425897,39.4934877 C25.998274,39.4934877 22.7197084,36.2149221 22.7197084,32.1706064 C22.7197084,28.1262908 25.998274,24.8477252 30.0425897,24.8477252 Z M11.516326,21.1549902 C15.5606417,21.1549902 18.8392073,24.4335558 18.8392073,28.4778715 C18.8392073,32.5221871 15.5606417,35.8007527 11.516326,35.8007527 C7.47201041,35.8007527 4.19344481,32.5221871 4.19344481,28.4778715 C4.19344481,24.4335558 7.47201041,21.1549902 11.516326,21.1549902 Z M48.5688533,21.1549902 C52.6131689,21.1549902 55.8917345,24.4335558 55.8917345,28.4778715 C55.8917345,32.5221871 52.6131689,35.8007527 48.5688533,35.8007527 C44.5245377,35.8007527 41.2459721,32.5221871 41.2459721,28.4778715 C41.2459721,24.4335558 44.5245377,21.1549902 48.5688533,21.1549902 Z M32.3583726,1.12659711 C35.738164,-0.625887285 39.9941975,-0.0625887285 42.8106903,2.75390405 C45.6897718,5.63298556 46.1904816,9.95160783 44.4379972,13.3939879 L44.4379972,13.3939879 L45.6897718,17.0867229 C45.9401267,17.8377876 45.2516507,18.5888524 44.4379972,18.3384974 L44.4379972,18.3384974 L40.6826735,17.0867229 C38.0539469,18.4636749 34.9245105,18.5262636 32.3583726,17.2119003 C36.5518174,12.6429232 36.5518174,5.63298556 32.3583726,1.12659711 Z M17.2744891,2.75390405 C20.7794579,-0.751064742 26.5376209,-0.751064742 30.0425897,2.75390405 C33.5475585,6.25887285 33.5475585,12.0170359 30.0425897,15.5220047 C27.1635082,18.4010862 22.8448859,18.901796 19.4650946,17.0867229 L19.4650946,17.0867229 L15.7097709,18.3384974 C14.8961174,18.5888524 14.1450526,17.8377876 14.4579963,17.0867229 L14.4579963,17.0867229 L15.7097709,13.3313992 C13.8946977,9.95160783 14.3954076,5.63298556 17.2744891,2.75390405 Z" id="Combined-Shape"></path>
                    </g>
                </g>
            </g>
        </g>
    </g>
</svg>