<?xml version="1.0" encoding="UTF-8"?>
<svg width="36px" height="36px" viewBox="0 0 36 36" version="1.1" xmlns="http://www.w3.org/2000/svg" xmlns:xlink="http://www.w3.org/1999/xlink">
    <!-- Generator: Sketch 59 (86127) - https://sketch.com -->
    <title>ic/opportunities-circle</title>
    <desc>Created with Sketch.</desc>
    <g id="Element-Sheet" stroke="none" stroke-width="1" fill="none" fill-rule="evenodd">
        <g id="Tablet" transform="translate(-135.000000, -632.000000)">
            <g id="ic/opportunities-circle" transform="translate(135.000000, 632.000000)">
                <rect id="Rectangle" fill="#E64E44" x="0" y="0" width="36" height="36" rx="18"></rect>
                <g id="ic/opportunities" transform="translate(7.000000, 8.000000)" fill="#FFFFFF">
                    <path d="M13.2049669,0 C11.66752,0 10.2373196,0.441605071 9.03055749,1.20977085 C8.92340159,1.27749597 8.84885857,1.38511138 8.82090434,1.5084967 C8.79388279,1.63095815 8.81717838,1.75991282 8.8851974,1.86659723 C8.9532188,1.97328165 9.06130499,2.04750474 9.18523009,2.07533721 C9.30822489,2.10224106 9.43774608,2.07904932 9.5448972,2.01132419 C10.6024779,1.33780164 11.8510795,0.949990025 13.2050194,0.949990025 C16.9815479,0.949990025 20.0405551,3.98831081 20.0405551,7.75575259 C20.0405551,8.91263248 19.7517098,9.99436778 19.2429328,10.94726 C19.1907527,11.0455987 19.1749114,11.1578549 19.198207,11.2664108 L19.8914452,14.4132685 L17.364377,13.856619 C17.2385866,13.823222 17.1044187,13.8436302 16.9935225,13.9113554 C16.8826406,13.9790805 16.803439,14.0885508 16.776415,14.2156387 C16.7484608,14.3427385 16.7745521,14.4744648 16.8472321,14.5820992 C16.9208425,14.6897146 17.0345224,14.7630067 17.1631037,14.7843436 L20.4131796,15.5042496 C20.5743786,15.5422874 20.7430295,15.4940443 20.8604377,15.3780784 C20.9769109,15.2611839 21.0253651,15.09327 20.9871609,14.9327684 L20.1597214,11.1995264 C20.6805923,10.1586171 20.9946033,8.99617977 20.9946033,7.75579534 C20.9946033,3.47535639 17.4966867,0 13.2049168,0 L13.2049669,0 Z M7.78562934,3.4732854 C3.49290525,3.4732854 0.00333801382,6.95609924 0.00333801382,11.2367757 C0.00333801382,12.4780864 0.318279312,13.63955 0.838219893,14.6805068 L0.0107803894,18.4211112 C-0.0236954614,18.5806818 0.0256889944,18.7458194 0.142162173,18.8608638 C0.258635351,18.9749748 0.425425667,19.0222893 0.584768837,18.9851801 L4.31191961,18.1613446 C5.36017344,18.6855042 6.53609264,19 7.7855053,19 C12.0782294,19 15.5677971,15.5173192 15.5677971,11.2366427 C15.5677971,6.95596624 12.0782294,3.4732854 7.7855053,3.4732854 L7.78562934,3.4732854 Z M7.78562934,4.42334192 C11.5612037,4.42334192 14.6137704,7.46909642 14.6137704,11.2367757 C14.6137704,15.004455 11.5612037,18.0501382 7.78562934,18.0501382 C6.62182785,18.0501382 5.52324257,17.7597486 4.56537066,17.2485801 C4.46473639,17.1956987 4.34826321,17.1790001 4.23738135,17.2040491 L1.10657431,17.8942678 L1.79981251,14.7547726 C1.82497108,14.6443737 1.8081995,14.5284078 1.7550867,14.4282119 C1.24633353,13.4745121 0.957464879,12.3937031 0.957464879,11.2367044 C0.957464879,7.46926267 4.01003109,4.42334192 7.78560548,4.42334192 L7.78562934,4.42334192 Z M4.2819879,10.4649049 C3.85615043,10.4649049 3.50674044,10.812793 3.50674044,11.2367757 C3.50674044,11.6607584 3.85615043,12.0086465 4.2819879,12.0086465 C4.70782536,12.0086465 5.04979298,11.6607584 5.04979298,11.2367757 C5.04979298,10.812793 4.70782536,10.4649049 4.2819879,10.4649049 Z M7.78562934,10.4649049 C7.35979187,10.4649049 7.01038188,10.812793 7.01038188,11.2367757 C7.01038188,11.6607584 7.35979187,12.0086465 7.78562934,12.0086465 C8.2114668,12.0086465 8.55343442,11.6607584 8.55343442,11.2367757 C8.55343442,10.812793 8.2114668,10.4649049 7.78562934,10.4649049 Z M11.2892708,10.4649049 C10.8634333,10.4649049 10.5140233,10.812793 10.5140233,11.2367757 C10.5140233,11.6607584 10.8634333,12.0086465 11.2892708,12.0086465 C11.7151082,12.0086465 12.0570759,11.6607584 12.0570759,11.2367757 C12.0570759,10.812793 11.7151082,10.4649049 11.2892708,10.4649049 Z"></path>
                </g>
            </g>
        </g>
    </g>
</svg>