<svg xmlns="http://www.w3.org/2000/svg" xmlns:xlink="http://www.w3.org/1999/xlink" width="24" height="24" version="1.1" style=""><rect id="backgroundrect" width="100%" height="100%" x="0" y="0" fill="none" stroke="none"/>
    <!-- Generator: sketchtool 63.1 (101010) - https://sketch.com -->
    <title>EB7D17C4-BD95-4F89-B864-A5CF5C879739</title>
    <desc>Created with sketchtool.</desc>
    
<g class="currentLayer" style=""><title>Layer 1</title>
        
            
                
                    
                    
                
            
        
    <g id="Group-4" fill="currentColor" class="selected" fill-opacity="1">
                        <path d="M16.829732569775683,16.077518554422372 C16.248712160456783,15.870011257042552 15.299366211476105,15.859635893632625 14.879163971487394,15.698817738892668 C14.588653752237585,15.584688726792908 14.126950014837991,15.460184336692688 13.97650722350811,15.27861545513304 C13.82606443217823,15.097046558982862 13.82606443217823,13.800125928473545 13.82606443217823,13.800125928473545 C13.82606443217823,13.800125928473545 14.189202195297725,13.45773889217394 14.339645001217958,13.07385038764425 C14.490087792547838,12.695149557524172 14.588653752237585,11.64723769262493 14.588653752237585,11.64723769262493 C14.588653752237585,11.64723769262493 14.931040817717886,11.792492794954642 15.065920498276222,11.107718707765066 C15.180049627098938,10.516322905855555 15.397932244117639,10.20506194519537 15.340867752658054,9.769296623615867 C15.2786155138369,9.333531287445997 15.039982199179015,9.437284936135827 15.039982199179015,9.437284936135827 C15.039982199179015,9.437284936135827 15.340867752658054,8.996331925556172 15.340867752658054,7.497091672076815 C15.340867752658054,5.951162290547795 14.173639157477966,4.431171311868166 11.989624816809085,4.431171311868166 C9.810798165140369,4.431171311868166 8.633194221140675,5.95634996495774 8.633194221140675,7.497091672076815 C8.633194221140675,8.996331925556172 8.928892129390638,9.437284936135827 8.928892129390638,9.437284936135827 C8.928892129390638,9.437284936135827 8.685071052780803,9.333531287445997 8.628006546730873,9.769296623615867 C8.565754351680782,10.20506194519537 8.783637027060907,10.516322905855555 8.902953713570565,11.107718707765066 C9.037833467080693,11.79768048395479 9.380220503380272,11.64723769262493 9.380220503380272,11.64723769262493 C9.380220503380272,11.64723769262493 9.478786477660377,12.689961883114394 9.62922926899026,13.07385038764425 C9.77967206032014,13.45773889217394 10.142809838029986,13.800125928473545 10.142809838029986,13.800125928473545 C10.142809838029986,13.800125928473545 10.142809838029986,15.097046558982862 9.99236704670011,15.27861545513304 C9.84192425537023,15.460184336692688 9.380220503380272,15.584688726792908 9.089710284130465,15.69363004989252 C8.674695689370848,15.854448204632472 7.725349784161226,15.875198946042701 7.139141656661465,16.08270624342252 C6.558121218161851,16.290213540802345 4.7631830710228815,17.234371757011758 4.7631830710228815,19.568828859829818 L19.200514730169765,19.568828859829818 C19.205691242956405,17.22918408260198 17.41075297909458,16.285025866392562 16.829732569775683,16.077518554422372 z" id="Fill-1" fill="currentColor" fill-opacity="1"/>
                        <path d="M5.982288468662398,13.551117177453836 C5.982288468662398,13.551117177453836 7.222144578531454,13.50961570922375 7.714974420751277,13.0686626986441 C6.9108836324617435,11.849557315594808 7.34664896863163,10.42813229498527 7.180643124891639,9.100085574246167 C7.014637281151643,7.777226527916678 6.262423324502244,6.983511103037124 4.7579953820227265,6.983511103037124 L4.737244655202815,6.983511103037124 C3.2846930337009312,6.983511103037124 2.5013529722313077,7.772038853506897 2.3353476537441726,9.100085574246167 C2.1693418100041773,10.422944620575489 2.631045036741277,12.005187781334612 1.8062040322943345,13.0686626986441 C2.2990338745141536,13.514803398223899 3.54407767338337,13.499240345813824 3.54407767338337,13.499240345813824 C3.54407767338337,13.499240345813824 3.5959545050235047,14.246266628053341 3.4922008563335942,14.370771018153564 C3.3884472076436936,14.495275393663418 3.0823739359837816,14.614592094763324 2.8696789496038058,14.656093548403206 C2.4131628866140096,14.754659522683253 1.9307084223945052,14.889539261603035 1.5260691808315874,15.029606689522968 C1.1214299451048162,15.169674117442897 0.3536529328354229,15.921888088682735 0.3536529328354229,16.95942459017205 L4.519361994413049,16.95942459017205 C4.6334910065129105,16.544409980822035 5.416831067982534,15.802571387582663 6.179420402632248,15.413495194052658 C6.646311829032001,15.174861806443046 7.108015566431595,15.190424844262756 7.460777980731491,15.143735701622889 C7.460777980731491,15.143735701622889 7.657909914701346,14.832474755553076 7.009449606741847,14.713158054453169 C7.009449606741847,14.713158054453169 6.1171682075821625,14.490087704663102 6.013414558892259,14.365583329153415 C5.9148485846121535,14.251454317053492 5.982288468662398,13.551117177453836 5.982288468662398,13.551117177453836 zM18.017711833414264,13.551117177453836 C18.017711833414264,13.551117177453836 16.77785582567769,13.50961570922375 16.285025954277167,13.0686626986441 C17.08911672797634,11.849557315594808 16.653351348035383,10.42813229498527 16.81935722095609,9.100085574246167 C16.985363093876796,7.777226527916678 17.73757697757441,6.983511103037124 19.24200503677678,6.983511103037124 L19.26275573441598,6.983511103037124 C20.715306757713225,6.983511103037124 21.498646833773208,7.772038853506897 21.664652706693914,9.100085574246167 C21.83065857961462,10.422944620575489 21.368954754672878,12.005187781334612 22.19379637191482,13.0686626986441 C21.70096650051429,13.514803398223899 20.45592274541614,13.499240345813824 20.45592274541614,13.499240345813824 C20.45592274541614,13.499240345813824 20.404045855414576,14.246266628053341 20.507799489514134,14.370771018153564 C20.61155312361367,14.495275393663418 20.917626424454312,14.614592094763324 21.13032144001499,14.656093548403206 C21.586837517595146,14.754659522683253 22.069291894272503,14.889539261603035 22.473931227754676,15.029606689522968 C22.878570415333275,15.169674117442897 23.646347395212068,15.921888088682735 23.646347395212068,16.95942459017205 L19.480638351434674,16.95942459017205 C19.36650936851553,16.544409980822035 18.583169292455548,15.802571387582663 17.820579914034756,15.413495194052658 C17.353688487635008,15.174861806443046 16.891984808596835,15.190424844262756 16.539222365116238,15.143735701622889 C16.539222365116238,15.143735701622889 16.342090445736734,14.832474755553076 16.990550695334807,14.713158054453169 C16.990550695334807,14.713158054453169 17.88283215285591,14.490087704663102 17.986585786955466,14.365583329153415 C18.085151819596998,14.251454317053492 18.017711833414264,13.551117177453836 18.017711833414264,13.551117177453836 z" id="Fill-3" fill="currentColor" fill-opacity="1"/>
                    </g></g></svg>