<?xml version="1.0" encoding="UTF-8"?>
<svg width="30px" height="30px" viewBox="0 0 30 30" version="1.1" xmlns="http://www.w3.org/2000/svg" xmlns:xlink="http://www.w3.org/1999/xlink">
    <title>FAEE4C99-AD45-4D19-91E4-7CD20686A543</title>
    <g id="Element-Sheet" stroke="none" stroke-width="1" fill="none" fill-rule="evenodd">
        <g transform="translate(-785.000000, -795.000000)" fill="#868686" fill-rule="nonzero" id="ic/plus">
            <g transform="translate(785.000000, 795.000000)">
                <path d="M15,0.441176471 C23.0406182,0.441176471 29.5588235,6.95938314 29.5588235,15 C29.5588235,23.0406195 23.0406195,29.5588235 15,29.5588235 C6.95938314,29.5588235 0.441176471,23.0406182 0.441176471,15 C0.441176471,6.95938445 6.95938445,0.441176471 15,0.441176471 Z M15,3.08823529 C8.42131467,3.08823529 3.08823529,8.42131467 3.08823529,15 C3.08823529,21.5786879 8.42131324,26.9117647 15,26.9117647 C21.5786893,26.9117647 26.9117647,21.5786893 26.9117647,15 C26.9117647,8.42131324 21.5786879,3.08823529 15,3.08823529 Z M15,8.38235294 C15.6879672,8.38235294 16.2533371,8.90725419 16.3174707,9.57841764 L16.3235294,9.70588235 L16.3231765,13.6761765 L20.2941176,13.6764706 C21.0250828,13.6764706 21.6176471,14.2690349 21.6176471,15 C21.6176471,15.6879672 21.0927458,16.2533371 20.4215824,16.3174707 L20.2941176,16.3235294 L16.3231765,16.3231765 L16.3235294,20.2941176 C16.3235294,21.0250828 15.7309651,21.6176471 15,21.6176471 C14.3120328,21.6176471 13.7466629,21.0927458 13.6825293,20.4215824 L13.6764706,20.2941176 L13.6761765,16.3231765 L9.70588235,16.3235294 C8.97491724,16.3235294 8.38235294,15.7309651 8.38235294,15 C8.38235294,14.3120328 8.90725419,13.7466629 9.57841764,13.6825293 L9.70588235,13.6764706 L13.6761765,13.6761765 L13.6764706,9.70588235 C13.6764706,8.97491724 14.2690349,8.38235294 15,8.38235294 Z" id="Combined-Shape"></path>
            </g>
        </g>
    </g>
</svg>