<?xml version="1.0" encoding="UTF-8"?>
<svg width="24px" height="24px" viewBox="0 0 24 24" version="1.1" xmlns="http://www.w3.org/2000/svg" xmlns:xlink="http://www.w3.org/1999/xlink">
    <!-- Generator: sketchtool 63.1 (101010) - https://sketch.com -->
    <title>9D4EE338-C729-4D28-8C91-419BF313F36A</title>
    <desc>Created with sketchtool.</desc>
    <g id="Element-Sheet" stroke="none" stroke-width="1" fill="none" fill-rule="evenodd">
        <g transform="translate(-65.000000, -598.000000)" fill="#000000" id="Icons/ic-settings">
            <path d="M77,598 C83.597,598 89,603.403 89,610 C89,616.597 83.597,622 77,622 C70.403,622 65,616.597 65,610 C65,603.403 70.403,598 77,598 Z M78.1852969,603 L75.8147031,603 C75.6179648,603 75.4476953,603.137156 75.4059414,603.32941 L75.1720156,604.405414 C74.8855625,604.498984 74.6061367,604.614895 74.3369648,604.751695 L73.4103945,604.156012 C73.2448281,604.049645 73.0274727,604.073023 72.8884023,604.212094 L71.2120937,605.888402 C71.0730234,606.027473 71.0496445,606.244828 71.1560117,606.410395 L71.7516953,607.336965 C71.6148945,607.606137 71.4989844,607.885562 71.4054141,608.172016 L70.3294102,608.405941 C70.1371563,608.447805 70,608.617965 70,608.814703 L70,611.185297 C70,611.382035 70.1371563,611.552195 70.3294102,611.594059 L71.4054141,611.827984 C71.4989844,612.114438 71.6148945,612.393863 71.7516953,612.663035 L71.1560117,613.589605 C71.0496445,613.755172 71.0730234,613.972527 71.2120937,614.111598 L72.8884023,615.787906 C73.0274727,615.926977 73.2448281,615.950355 73.4103945,615.843988 L74.3369648,615.248305 C74.6061367,615.385105 74.8855625,615.501016 75.1720156,615.594586 L75.4059414,616.67059 C75.4476953,616.862844 75.6179648,617 75.8147031,617 L78.1852969,617 C78.3820352,617 78.5523047,616.862844 78.5940586,616.67059 L78.8279844,615.594586 C79.1144375,615.501016 79.3938633,615.385105 79.6630352,615.248305 L80.5896055,615.843988 C80.7551719,615.950355 80.9725273,615.927086 81.1115977,615.787906 L82.7879062,614.111598 C82.9269766,613.972527 82.9503555,613.755172 82.8439883,613.589605 L82.2483047,612.663035 C82.3851055,612.393863 82.5010156,612.114438 82.5945859,611.827984 L83.6705898,611.594059 C83.8628437,611.552195 84,611.382035 84,611.185297 L84,608.814703 C84,608.617965 83.8628437,608.447805 83.6705898,608.405941 L82.5945859,608.172016 C82.5010156,607.885562 82.3851055,607.606137 82.2483047,607.336965 L82.8439883,606.410395 C82.9503555,606.244828 82.9269766,606.027473 82.7879062,605.888402 L81.1115977,604.212094 C80.9725273,604.073023 80.7551719,604.049645 80.5896055,604.156012 L79.6630352,604.751695 C79.3938633,604.614895 79.1144375,604.498984 78.8279844,604.405414 L78.5940586,603.32941 C78.5523047,603.137156 78.3820352,603 78.1852969,603 Z M77,607.490035 C78.3839492,607.490035 79.5099648,608.616051 79.5099648,610 C79.5099648,611.383949 78.3839492,612.509965 77,612.509965 C75.6160508,612.509965 74.4900352,611.383949 74.4900352,610 C74.4900352,608.616051 75.6160508,607.490035 77,607.490035 Z"></path>
        </g>
    </g>
</svg>