<?xml version="1.0" encoding="iso-8859-1"?>
<!-- Generator: Adobe Illustrator 19.0.0, SVG Export Plug-In . SVG Version: 6.00 Build 0)  -->
<svg version="1.1" id="Capa_1" xmlns="http://www.w3.org/2000/svg" xmlns:xlink="http://www.w3.org/1999/xlink" x="0px" y="0px"
	 viewBox="0 0 394.8 394.8" style="enable-background:new 0 0 394.8 394.8;" xml:space="preserve">
<g>
	<g>
		<g>
			<path d="M345.417,78.8v-0.4l-76-76.4l-0.4-0.4c0,0-0.4,0-0.4-0.4c0,0-0.4,0-0.4-0.4c-1.2-0.8-2.4-0.8-4-0.8h-188.4
				c-7.2,0-14,2.8-18.8,7.6l-0.4,0.4c-4.8,4.8-8,12-8,19.2v340.4c-0.4,7.2,2.8,14,7.6,19.2c5.2,4.8,12,8,19.2,8h243.6
				c7.2,0,14-2.8,18.8-7.6l0.4-0.4c4.8-4.8,8-12,8-19.2V82.8C346.217,81.2,345.817,80,345.417,78.8z M271.817,28.8l45.2,45.2h-33.2
				c-3.2,0-6.4-1.2-8.4-3.6c-2-2-3.6-5.2-3.6-8.4V28.8z M329.417,366.8c0,2.8-1.2,5.2-3.2,7.2l-0.4,0.4c-2,1.6-4.4,2.8-6.8,2.8
				h-243.2c-2.8,0-5.2-1.2-7.2-2.8c-2-2-2.8-4.4-2.8-7.2V26.8h-0.4c0-2.8,1.2-5.2,3.2-7.2l0.4-0.4c2-1.6,4.4-2.8,6.8-2.8h179.2v45.2
				c0,8,3.2,15.2,8.8,20.8c5.2,5.2,12.8,8.4,20.8,8.4h44.8V366.8z"/>
			<path d="M267.417,219.6c-0.4-1.2-1.2-2.4-2-3.6l-106.4-107.2c-6.8-6.8-16-10.4-24.8-10.4c-9.2,0-18,3.6-24.8,10.4
				c-6.8,6.8-10.4,16-10.4,24.8c0,8.8,3.2,17.6,10,24.4c-0.4,0.4,0,0.8,0,0.8l109.6,109.6l30.8,12.4l31.6,12.4
				c4.4,1.6,9.2-0.4,11.2-4.8c0.8-2,0.8-4.4,0-6.4l-12.4-31.6L267.417,219.6z M224.617,250l-103.2-103.2l-0.4-0.4
				c-3.2-3.6-4.8-8-4.8-12.4c-0.4-4.8,1.6-9.6,5.2-12.8c3.6-3.6,8-5.2,12.8-5.2c4.8,0,9.2,1.6,12.8,5.2l103.2,103.2l-12.8,12.8
				L224.617,250z M259.417,266.4l-19.2-7.6l9.2-9.6l9.6-9.6l8,19.2l5.2,12.8L259.417,266.4z"/>
		</g>
	</g>
</g>
<g>
</g>
<g>
</g>
<g>
</g>
<g>
</g>
<g>
</g>
<g>
</g>
<g>
</g>
<g>
</g>
<g>
</g>
<g>
</g>
<g>
</g>
<g>
</g>
<g>
</g>
<g>
</g>
<g>
</g>
</svg>
