<?xml version="1.0" encoding="UTF-8"?>
<svg width="16px" height="16px" viewBox="0 0 16 16" version="1.1" xmlns="http://www.w3.org/2000/svg" xmlns:xlink="http://www.w3.org/1999/xlink">
    <!-- Generator: sketchtool 63.1 (101010) - https://sketch.com -->
    <title>78FBBF29-5A3C-46E1-9C00-254B5AA5C11C</title>
    <desc>Created with sketchtool.</desc>
    <g id="Element-Sheet" stroke="none" stroke-width="1" fill="none" fill-rule="evenodd">
        <g transform="translate(-296.000000, -652.000000)" fill="#188C5F" id="Icons/ic-check-on">
            <g transform="translate(296.000000, 652.000000)">
                <path d="M8,0 C3.58076923,0 0,3.58076923 0,8 C0,12.4192308 3.58076923,16 8,16 C12.4192308,16 16,12.4192308 16,8 C16,3.58076923 12.4192308,0 8,0 Z M12.0961538,5.78846154 L6.95384615,10.9538462 L6.95,10.9538462 C6.88461538,11.0192308 6.70769231,11.1653846 6.50384615,11.1653846 C6.35769231,11.1653846 6.19230769,11.0846154 6.05384615,10.9461538 L3.9,8.79230769 C3.83846154,8.73076923 3.83846154,8.63461538 3.9,8.57307692 L4.58461538,7.88846154 C4.61538462,7.85769231 4.65384615,7.84230769 4.69230769,7.84230769 C4.73076923,7.84230769 4.76923077,7.85769231 4.8,7.88846154 L6.50769231,9.59615385 L11.2,4.86923077 C11.2307692,4.83846154 11.2692308,4.82307692 11.3076923,4.82307692 C11.35,4.82307692 11.3884615,4.83846154 11.4153846,4.86923077 L12.0884615,5.56538462 C12.1576923,5.63076923 12.1576923,5.72692308 12.0961538,5.78846154 Z" id="ionic/check/on"></path>
            </g>
        </g>
    </g>
</svg>